<svg width="854" height="477" viewBox="0 0 854 477" fill="none" xmlns="http://www.w3.org/2000/svg">
<g filter="url(#filter0_f_17_474)">
<path d="M428.347 238.448C428.347 238.448 541.831 417.572 627.957 417.572C714.083 417.572 783.902 337.376 783.902 238.448C783.902 139.52 714.083 59.3232 627.957 59.3232C541.831 59.3232 428.347 238.448 428.347 238.448ZM428.347 238.448C428.347 238.448 314.863 417.572 228.737 417.572C142.61 417.572 72.7912 337.376 72.7912 238.448C72.7912 139.52 142.61 59.3232 228.737 59.3232C314.863 59.3232 428.347 238.448 428.347 238.448Z" stroke="url(#paint0_linear_17_474)" stroke-width="37.7104"/>
</g>
<g filter="url(#filter1_f_17_474)">
<path d="M427 238.448C427 238.448 554.669 449.896 651.561 449.896C748.453 449.896 827 355.227 827 238.448C827 121.668 748.453 26.9999 651.561 26.9999C554.669 26.9999 427 238.448 427 238.448ZM427 238.448C427 238.448 299.331 449.896 202.439 449.896C105.546 449.896 27 355.227 27 238.448C27 121.668 105.546 26.9999 202.439 26.9999C299.331 26.9999 427 238.448 427 238.448Z" stroke="url(#paint1_linear_17_474)" stroke-width="21.5488"/>
</g>
<g filter="url(#filter2_i_17_474)">
<path d="M428.347 237.101C428.347 237.101 526.356 371.781 600.737 371.781C675.119 371.781 735.417 311.483 735.417 237.101C735.417 162.719 675.119 102.421 600.737 102.421C526.356 102.421 428.347 237.101 428.347 237.101ZM428.347 237.101C428.347 237.101 330.338 371.781 255.956 371.781C181.574 371.781 121.276 311.483 121.276 237.101C121.276 162.719 181.574 102.421 255.956 102.421C330.338 102.421 428.347 237.101 428.347 237.101Z" stroke="url(#paint2_linear_17_474)" stroke-width="48.4848"/>
</g>
<g filter="url(#filter3_i_17_474)">
<path d="M211.8 323.261C212.141 326.216 214.814 328.335 217.77 327.994C220.725 327.652 222.845 324.979 222.503 322.023L204.565 166.828C204.223 163.872 201.55 161.753 198.595 162.095C195.639 162.436 193.52 165.109 193.862 168.065L211.8 323.261Z" fill="url(#paint3_linear_17_474)"/>
<path d="M248.441 335.295C248.782 338.25 251.455 340.369 254.411 340.028C257.366 339.686 259.485 337.013 259.144 334.058L237.185 144.077C236.844 141.121 234.171 139.002 231.215 139.344C228.259 139.685 226.14 142.358 226.482 145.314L248.441 335.295Z" fill="url(#paint4_linear_17_474)"/>
<path d="M282.157 322.023C282.498 324.979 285.171 327.098 288.127 326.756C291.082 326.415 293.201 323.742 292.86 320.786L272.448 144.184C272.106 141.229 269.433 139.11 266.477 139.451C263.522 139.793 261.403 142.466 261.744 145.421L282.157 322.023Z" fill="url(#paint5_linear_17_474)"/>
<path d="M316.653 297.132C316.995 300.087 319.667 302.206 322.623 301.865C325.579 301.523 327.698 298.85 327.356 295.895L311.892 162.105C311.551 159.15 308.878 157.031 305.922 157.372C302.966 157.714 300.847 160.387 301.189 163.342L316.653 297.132Z" fill="url(#paint6_linear_17_474)"/>
<path d="M346.167 267.177C346.509 270.132 349.182 272.251 352.138 271.91C355.093 271.568 357.212 268.895 356.871 265.94L348.829 196.369C348.488 193.414 345.815 191.294 342.859 191.636C339.904 191.978 337.785 194.651 338.126 197.606L346.167 267.177Z" fill="url(#paint7_linear_17_474)"/>
<path d="M175.026 299.286C175.368 302.242 178.041 304.361 180.996 304.019C183.952 303.678 186.071 301.005 185.73 298.049L173.977 196.369C173.635 193.414 170.962 191.294 168.007 191.636C165.051 191.978 162.932 194.651 163.274 197.606L175.026 299.286Z" fill="url(#paint8_linear_17_474)"/>
</g>
<g filter="url(#filter4_i_17_474)">
<path d="M645.171 323.58C644.829 326.536 642.156 328.655 639.2 328.313C636.245 327.972 634.126 325.299 634.467 322.343L652.406 167.147C652.747 164.192 655.42 162.073 658.376 162.414C661.331 162.756 663.45 165.429 663.109 168.385L645.171 323.58Z" fill="url(#paint9_linear_17_474)"/>
<path d="M608.53 335.614C608.188 338.57 605.515 340.689 602.56 340.347C599.604 340.006 597.485 337.333 597.826 334.377L619.785 144.396C620.127 141.441 622.8 139.322 625.755 139.663C628.711 140.005 630.83 142.678 630.488 145.633L608.53 335.614Z" fill="url(#paint10_linear_17_474)"/>
<path d="M574.814 322.343C574.472 325.299 571.799 327.418 568.843 327.076C565.888 326.735 563.769 324.062 564.11 321.106L584.523 144.504C584.864 141.548 587.537 139.429 590.493 139.771C593.449 140.113 595.568 142.786 595.226 145.741L574.814 322.343Z" fill="url(#paint11_linear_17_474)"/>
<path d="M540.317 297.451C539.976 300.407 537.303 302.526 534.347 302.184C531.392 301.843 529.273 299.17 529.614 296.214L545.078 162.425C545.42 159.469 548.093 157.35 551.048 157.692C554.004 158.033 556.123 160.706 555.781 163.662L540.317 297.451Z" fill="url(#paint12_linear_17_474)"/>
<path d="M510.803 267.496C510.461 270.452 507.788 272.571 504.833 272.229C501.877 271.888 499.758 269.215 500.1 266.259L508.141 196.689C508.483 193.733 511.155 191.614 514.111 191.956C517.067 192.297 519.186 194.97 518.844 197.926L510.803 267.496Z" fill="url(#paint13_linear_17_474)"/>
<path d="M681.944 299.606C681.602 302.561 678.929 304.681 675.974 304.339C673.018 303.997 670.899 301.324 671.241 298.369L682.993 196.689C683.335 193.733 686.008 191.614 688.963 191.956C691.919 192.297 694.038 194.97 693.697 197.926L681.944 299.606Z" fill="url(#paint14_linear_17_474)"/>
</g>
<defs>
<filter id="filter0_f_17_474" x="49.936" y="36.468" width="756.822" height="403.96" filterUnits="userSpaceOnUse" color-interpolation-filters="sRGB">
<feFlood flood-opacity="0" result="BackgroundImageFix"/>
<feBlend mode="normal" in="SourceGraphic" in2="BackgroundImageFix" result="shape"/>
<feGaussianBlur stdDeviation="2" result="effect1_foregroundBlur_17_474"/>
</filter>
<filter id="filter1_f_17_474" x="0.225555" y="0.225525" width="853.549" height="476.444" filterUnits="userSpaceOnUse" color-interpolation-filters="sRGB">
<feFlood flood-opacity="0" result="BackgroundImageFix"/>
<feBlend mode="normal" in="SourceGraphic" in2="BackgroundImageFix" result="shape"/>
<feGaussianBlur stdDeviation="8" result="effect1_foregroundBlur_17_474"/>
</filter>
<filter id="filter2_i_17_474" x="97.0337" y="78.1785" width="662.626" height="321.845" filterUnits="userSpaceOnUse" color-interpolation-filters="sRGB">
<feFlood flood-opacity="0" result="BackgroundImageFix"/>
<feBlend mode="normal" in="SourceGraphic" in2="BackgroundImageFix" result="shape"/>
<feColorMatrix in="SourceAlpha" type="matrix" values="0 0 0 0 0 0 0 0 0 0 0 0 0 0 0 0 0 0 127 0" result="hardAlpha"/>
<feOffset dy="4"/>
<feGaussianBlur stdDeviation="2"/>
<feComposite in2="hardAlpha" operator="arithmetic" k2="-1" k3="1"/>
<feColorMatrix type="matrix" values="0 0 0 0 0 0 0 0 0 0 0 0 0 0 0 0 0 0 0.25 0"/>
<feBlend mode="normal" in2="shape" result="effect1_innerShadow_17_474"/>
</filter>
<filter id="filter3_i_17_474" x="163.238" y="139.307" width="193.669" height="202.756" filterUnits="userSpaceOnUse" color-interpolation-filters="sRGB">
<feFlood flood-opacity="0" result="BackgroundImageFix"/>
<feBlend mode="normal" in="SourceGraphic" in2="BackgroundImageFix" result="shape"/>
<feColorMatrix in="SourceAlpha" type="matrix" values="0 0 0 0 0 0 0 0 0 0 0 0 0 0 0 0 0 0 127 0" result="hardAlpha"/>
<feOffset dy="2"/>
<feGaussianBlur stdDeviation="4"/>
<feComposite in2="hardAlpha" operator="arithmetic" k2="-1" k3="1"/>
<feColorMatrix type="matrix" values="0 0 0 0 0 0 0 0 0 0 0 0 0 0 0 0 0 0 0.25 0"/>
<feBlend mode="normal" in2="shape" result="effect1_innerShadow_17_474"/>
</filter>
<filter id="filter4_i_17_474" x="500.064" y="139.627" width="193.669" height="202.756" filterUnits="userSpaceOnUse" color-interpolation-filters="sRGB">
<feFlood flood-opacity="0" result="BackgroundImageFix"/>
<feBlend mode="normal" in="SourceGraphic" in2="BackgroundImageFix" result="shape"/>
<feColorMatrix in="SourceAlpha" type="matrix" values="0 0 0 0 0 0 0 0 0 0 0 0 0 0 0 0 0 0 127 0" result="hardAlpha"/>
<feOffset dy="2"/>
<feGaussianBlur stdDeviation="4"/>
<feComposite in2="hardAlpha" operator="arithmetic" k2="-1" k3="1"/>
<feColorMatrix type="matrix" values="0 0 0 0 0 0 0 0 0 0 0 0 0 0 0 0 0 0 0.25 0"/>
<feBlend mode="normal" in2="shape" result="effect1_innerShadow_17_474"/>
</filter>
<linearGradient id="paint0_linear_17_474" x1="72.7912" y1="285.185" x2="786.557" y2="221.428" gradientUnits="userSpaceOnUse">
<stop offset="0.0820949" stop-color="#C4D462"/>
<stop offset="0.373445" stop-color="#96A250"/>
<stop offset="0.632841" stop-color="#0DA939"/>
<stop offset="0.907274" stop-color="#48DEB1"/>
</linearGradient>
<linearGradient id="paint1_linear_17_474" x1="27" y1="345.259" x2="827" y2="131.636" gradientUnits="userSpaceOnUse">
<stop offset="0.0820949" stop-color="#C4D462"/>
<stop offset="0.373445" stop-color="#96A250"/>
<stop offset="0.632841" stop-color="#0DA939"/>
<stop offset="0.907274" stop-color="#48DEB1"/>
</linearGradient>
<linearGradient id="paint2_linear_17_474" x1="121.276" y1="285.67" x2="735.003" y2="288.22" gradientUnits="userSpaceOnUse">
<stop offset="0.0820949" stop-color="#BBC86F"/>
<stop offset="0.15" stop-color="#B2BC77"/>
<stop offset="0.35" stop-color="#2AA41F"/>
<stop offset="0.907274" stop-color="#48DEB1"/>
</linearGradient>
<linearGradient id="paint3_linear_17_474" x1="333.234" y1="127.552" x2="132.019" y2="209.386" gradientUnits="userSpaceOnUse">
<stop offset="0.0820949" stop-color="#BBC86F"/>
<stop offset="0.15" stop-color="#B2BC77"/>
<stop offset="0.35" stop-color="#2AA41F"/>
<stop offset="0.907274" stop-color="#48DEB1"/>
</linearGradient>
<linearGradient id="paint4_linear_17_474" x1="333.234" y1="127.552" x2="132.019" y2="209.386" gradientUnits="userSpaceOnUse">
<stop offset="0.0820949" stop-color="#BBC86F"/>
<stop offset="0.15" stop-color="#B2BC77"/>
<stop offset="0.35" stop-color="#2AA41F"/>
<stop offset="0.907274" stop-color="#48DEB1"/>
</linearGradient>
<linearGradient id="paint5_linear_17_474" x1="333.234" y1="127.552" x2="132.019" y2="209.386" gradientUnits="userSpaceOnUse">
<stop offset="0.0820949" stop-color="#BBC86F"/>
<stop offset="0.15" stop-color="#B2BC77"/>
<stop offset="0.35" stop-color="#2AA41F"/>
<stop offset="0.907274" stop-color="#48DEB1"/>
</linearGradient>
<linearGradient id="paint6_linear_17_474" x1="333.234" y1="127.552" x2="132.019" y2="209.386" gradientUnits="userSpaceOnUse">
<stop offset="0.0820949" stop-color="#BBC86F"/>
<stop offset="0.15" stop-color="#B2BC77"/>
<stop offset="0.35" stop-color="#2AA41F"/>
<stop offset="0.907274" stop-color="#48DEB1"/>
</linearGradient>
<linearGradient id="paint7_linear_17_474" x1="333.234" y1="127.552" x2="132.019" y2="209.386" gradientUnits="userSpaceOnUse">
<stop offset="0.0820949" stop-color="#BBC86F"/>
<stop offset="0.15" stop-color="#B2BC77"/>
<stop offset="0.35" stop-color="#2AA41F"/>
<stop offset="0.907274" stop-color="#48DEB1"/>
</linearGradient>
<linearGradient id="paint8_linear_17_474" x1="333.234" y1="127.552" x2="132.019" y2="209.386" gradientUnits="userSpaceOnUse">
<stop offset="0.0820949" stop-color="#BBC86F"/>
<stop offset="0.15" stop-color="#B2BC77"/>
<stop offset="0.35" stop-color="#2AA41F"/>
<stop offset="0.907274" stop-color="#48DEB1"/>
</linearGradient>
<linearGradient id="paint9_linear_17_474" x1="523.736" y1="127.872" x2="724.951" y2="209.706" gradientUnits="userSpaceOnUse">
<stop offset="0.0820949" stop-color="#BBC86F"/>
<stop offset="0.15" stop-color="#B2BC77"/>
<stop offset="0.35" stop-color="#2AA41F"/>
<stop offset="0.907274" stop-color="#48DEB1"/>
</linearGradient>
<linearGradient id="paint10_linear_17_474" x1="523.736" y1="127.872" x2="724.951" y2="209.706" gradientUnits="userSpaceOnUse">
<stop offset="0.0820949" stop-color="#BBC86F"/>
<stop offset="0.15" stop-color="#B2BC77"/>
<stop offset="0.35" stop-color="#2AA41F"/>
<stop offset="0.907274" stop-color="#48DEB1"/>
</linearGradient>
<linearGradient id="paint11_linear_17_474" x1="523.736" y1="127.872" x2="724.951" y2="209.706" gradientUnits="userSpaceOnUse">
<stop offset="0.0820949" stop-color="#BBC86F"/>
<stop offset="0.15" stop-color="#B2BC77"/>
<stop offset="0.35" stop-color="#2AA41F"/>
<stop offset="0.907274" stop-color="#48DEB1"/>
</linearGradient>
<linearGradient id="paint12_linear_17_474" x1="523.736" y1="127.872" x2="724.951" y2="209.706" gradientUnits="userSpaceOnUse">
<stop offset="0.0820949" stop-color="#BBC86F"/>
<stop offset="0.15" stop-color="#B2BC77"/>
<stop offset="0.35" stop-color="#2AA41F"/>
<stop offset="0.907274" stop-color="#48DEB1"/>
</linearGradient>
<linearGradient id="paint13_linear_17_474" x1="523.736" y1="127.872" x2="724.951" y2="209.706" gradientUnits="userSpaceOnUse">
<stop offset="0.0820949" stop-color="#BBC86F"/>
<stop offset="0.15" stop-color="#B2BC77"/>
<stop offset="0.35" stop-color="#2AA41F"/>
<stop offset="0.907274" stop-color="#48DEB1"/>
</linearGradient>
<linearGradient id="paint14_linear_17_474" x1="523.736" y1="127.872" x2="724.951" y2="209.706" gradientUnits="userSpaceOnUse">
<stop offset="0.0820949" stop-color="#BBC86F"/>
<stop offset="0.15" stop-color="#B2BC77"/>
<stop offset="0.35" stop-color="#2AA41F"/>
<stop offset="0.907274" stop-color="#48DEB1"/>
</linearGradient>
</defs>
</svg>
