<svg width="843" height="471" viewBox="0 0 843 471" fill="none" xmlns="http://www.w3.org/2000/svg">
    <g filter="url(#filter0_f_17_474)">
    <path d="M422.347 235.448C422.347 235.448 535.831 414.572 621.957 414.572C708.083 414.572 777.902 334.376 777.902 235.448C777.902 136.52 708.083 56.3232 621.957 56.3232C535.831 56.3232 422.347 235.448 422.347 235.448ZM422.347 235.448C422.347 235.448 308.863 414.572 222.737 414.572C136.61 414.572 66.7912 334.376 66.7912 235.448C66.7912 136.52 136.61 56.3232 222.737 56.3232C308.863 56.3232 422.347 235.448 422.347 235.448Z" stroke="url(#paint0_linear_17_474)" stroke-width="37.7104"/>
    </g>
    <g filter="url(#filter1_f_17_474)">
    <path d="M421.325 235.448C421.325 235.448 547.183 443.896 642.7 443.896C738.217 443.896 815.65 350.57 815.65 235.448C815.65 120.325 738.217 27 642.7 27C547.183 27 421.325 235.448 421.325 235.448ZM421.325 235.448C421.325 235.448 295.467 443.896 199.949 443.896C104.432 443.896 27 350.57 27 235.448C27 120.325 104.432 27 199.949 27C295.467 27 421.325 235.448 421.325 235.448Z" stroke="url(#paint1_linear_17_474)" stroke-width="21.2431"/>
    </g>
    <g filter="url(#filter2_i_17_474)">
    <path d="M422.347 234.101C422.347 234.101 520.356 368.781 594.737 368.781C669.119 368.781 729.417 308.483 729.417 234.101C729.417 159.719 669.119 99.4209 594.737 99.4209C520.356 99.4209 422.347 234.101 422.347 234.101ZM422.347 234.101C422.347 234.101 324.338 368.781 249.956 368.781C175.574 368.781 115.276 308.483 115.276 234.101C115.276 159.719 175.574 99.4209 249.956 99.4209C324.338 99.4209 422.347 234.101 422.347 234.101Z" stroke="url(#paint2_linear_17_474)" stroke-width="48.4848"/>
    </g>
    <g filter="url(#filter3_i_17_474)">
    <path d="M205.8 320.261C206.141 323.216 208.814 325.335 211.77 324.994C214.725 324.652 216.845 321.979 216.503 319.023L198.565 163.828C198.223 160.872 195.55 158.753 192.595 159.095C189.639 159.436 187.52 162.109 187.862 165.065L205.8 320.261Z" fill="url(#paint3_linear_17_474)"/>
    <path d="M242.441 332.295C242.782 335.25 245.455 337.369 248.411 337.028C251.366 336.686 253.485 334.013 253.144 331.058L231.185 141.077C230.844 138.121 228.171 136.002 225.215 136.344C222.259 136.685 220.14 139.358 220.482 142.314L242.441 332.295Z" fill="url(#paint4_linear_17_474)"/>
    <path d="M276.157 319.023C276.498 321.979 279.171 324.098 282.127 323.756C285.082 323.415 287.201 320.742 286.86 317.786L266.448 141.184C266.106 138.229 263.433 136.11 260.477 136.451C257.522 136.793 255.403 139.466 255.744 142.421L276.157 319.023Z" fill="url(#paint5_linear_17_474)"/>
    <path d="M310.653 294.132C310.995 297.087 313.667 299.206 316.623 298.865C319.579 298.523 321.698 295.85 321.356 292.895L305.892 159.105C305.551 156.15 302.878 154.031 299.922 154.372C296.966 154.714 294.847 157.387 295.189 160.342L310.653 294.132Z" fill="url(#paint6_linear_17_474)"/>
    <path d="M340.167 264.177C340.509 267.132 343.182 269.251 346.138 268.91C349.093 268.568 351.212 265.895 350.871 262.94L342.829 193.369C342.488 190.414 339.815 188.294 336.859 188.636C333.904 188.978 331.785 191.651 332.126 194.606L340.167 264.177Z" fill="url(#paint7_linear_17_474)"/>
    <path d="M169.026 296.286C169.368 299.242 172.041 301.361 174.996 301.019C177.952 300.678 180.071 298.005 179.73 295.049L167.977 193.369C167.635 190.414 164.962 188.294 162.007 188.636C159.051 188.978 156.932 191.651 157.274 194.606L169.026 296.286Z" fill="url(#paint8_linear_17_474)"/>
    </g>
    <path d="M215.165 319.178L197.227 163.982C196.971 161.766 194.966 160.176 192.749 160.433C190.533 160.689 188.943 162.693 189.2 164.91L207.138 320.106C207.394 322.323 209.399 323.912 211.615 323.656C213.832 323.399 215.421 321.395 215.165 319.178ZM251.806 331.212L229.847 141.231C229.591 139.015 227.586 137.425 225.37 137.681C223.153 137.938 221.564 139.942 221.82 142.159L243.779 332.14C244.035 334.357 246.039 335.946 248.256 335.69C250.473 335.434 252.062 333.429 251.806 331.212ZM285.522 317.941L265.11 141.339C264.853 139.122 262.849 137.533 260.632 137.789C258.415 138.045 256.826 140.05 257.082 142.267L277.495 318.869C277.751 321.086 279.755 322.675 281.972 322.419C284.189 322.162 285.778 320.158 285.522 317.941ZM320.018 293.049L304.554 159.26C304.298 157.043 302.293 155.454 300.077 155.71C297.86 155.966 296.271 157.971 296.527 160.188L311.991 293.977C312.247 296.194 314.252 297.783 316.468 297.527C318.685 297.271 320.274 295.266 320.018 293.049ZM349.533 263.094L341.492 193.524C341.235 191.307 339.231 189.718 337.014 189.974C334.797 190.23 333.208 192.235 333.464 194.452L341.505 264.022C341.762 266.239 343.766 267.828 345.983 267.572C348.2 267.316 349.789 265.311 349.533 263.094ZM178.392 295.204L166.639 193.524C166.383 191.307 164.378 189.718 162.161 189.974C159.945 190.23 158.355 192.235 158.612 194.452L170.364 296.132C170.62 298.348 172.625 299.938 174.842 299.681C177.059 299.425 178.648 297.42 178.392 295.204Z" stroke="url(#paint9_linear_17_474)" stroke-width="2.6936"/>
    <g filter="url(#filter4_i_17_474)">
    <path d="M639.171 320.58C638.829 323.536 636.156 325.655 633.2 325.313C630.245 324.972 628.126 322.299 628.467 319.343L646.406 164.147C646.747 161.192 649.42 159.073 652.376 159.414C655.331 159.756 657.45 162.429 657.109 165.385L639.171 320.58Z" fill="url(#paint10_linear_17_474)"/>
    <path d="M602.53 332.614C602.188 335.57 599.515 337.689 596.56 337.347C593.604 337.006 591.485 334.333 591.826 331.377L613.785 141.396C614.127 138.441 616.8 136.322 619.755 136.663C622.711 137.005 624.83 139.678 624.488 142.633L602.53 332.614Z" fill="url(#paint11_linear_17_474)"/>
    <path d="M568.814 319.343C568.472 322.299 565.799 324.418 562.843 324.076C559.888 323.735 557.769 321.062 558.11 318.106L578.523 141.504C578.864 138.548 581.537 136.429 584.493 136.771C587.449 137.113 589.568 139.786 589.226 142.741L568.814 319.343Z" fill="url(#paint12_linear_17_474)"/>
    <path d="M534.317 294.451C533.976 297.407 531.303 299.526 528.347 299.184C525.392 298.843 523.273 296.17 523.614 293.214L539.078 159.425C539.42 156.469 542.093 154.35 545.048 154.692C548.004 155.033 550.123 157.706 549.781 160.662L534.317 294.451Z" fill="url(#paint13_linear_17_474)"/>
    <path d="M504.803 264.496C504.461 267.452 501.788 269.571 498.833 269.229C495.877 268.888 493.758 266.215 494.1 263.259L502.141 193.689C502.483 190.733 505.155 188.614 508.111 188.956C511.067 189.297 513.186 191.97 512.844 194.926L504.803 264.496Z" fill="url(#paint14_linear_17_474)"/>
    <path d="M675.944 296.606C675.602 299.561 672.929 301.681 669.974 301.339C667.018 300.997 664.899 298.324 665.241 295.369L676.993 193.689C677.335 190.733 680.008 188.614 682.963 188.956C685.919 189.297 688.038 191.97 687.697 194.926L675.944 296.606Z" fill="url(#paint15_linear_17_474)"/>
    </g>
    <path d="M629.805 319.498L647.743 164.302C648 162.085 650.004 160.496 652.221 160.752C654.438 161.008 656.027 163.013 655.771 165.23L637.833 320.426C637.576 322.642 635.572 324.232 633.355 323.975C631.138 323.719 629.549 321.714 629.805 319.498ZM593.164 331.532L615.123 141.551C615.379 139.334 617.384 137.745 619.601 138.001C621.817 138.257 623.407 140.262 623.15 142.479L601.192 332.46C600.936 334.676 598.931 336.266 596.714 336.01C594.497 335.753 592.908 333.749 593.164 331.532ZM559.448 318.261L579.861 141.659C580.117 139.442 582.122 137.853 584.338 138.109C586.555 138.365 588.144 140.37 587.888 142.586L567.476 319.189C567.22 321.405 565.215 322.994 562.998 322.738C560.781 322.482 559.192 320.477 559.448 318.261ZM524.952 293.369L540.416 159.58C540.672 157.363 542.677 155.774 544.894 156.03C547.11 156.286 548.7 158.291 548.443 160.507L532.98 294.297C532.723 296.513 530.719 298.103 528.502 297.847C526.285 297.59 524.696 295.586 524.952 293.369ZM495.438 263.414L503.479 193.843C503.735 191.627 505.74 190.037 507.956 190.294C510.173 190.55 511.762 192.555 511.506 194.771L503.465 264.342C503.209 266.558 501.204 268.148 498.987 267.892C496.771 267.635 495.181 265.631 495.438 263.414ZM666.579 295.523L678.331 193.843C678.587 191.627 680.592 190.037 682.809 190.294C685.026 190.55 686.615 192.555 686.359 194.771L674.606 296.451C674.35 298.668 672.345 300.257 670.128 300.001C667.912 299.745 666.322 297.74 666.579 295.523Z" stroke="url(#paint16_linear_17_474)" stroke-width="2.6936"/>
    <defs>
    <filter id="filter0_f_17_474" x="43.936" y="33.468" width="756.822" height="403.96" filterUnits="userSpaceOnUse" color-interpolation-filters="sRGB">
    <feFlood flood-opacity="0" result="BackgroundImageFix"/>
    <feBlend mode="normal" in="SourceGraphic" in2="BackgroundImageFix" result="shape"/>
    <feGaussianBlur stdDeviation="2" result="effect1_foregroundBlur_17_474"/>
    </filter>
    <filter id="filter1_f_17_474" x="0.378464" y="0.378448" width="841.893" height="470.139" filterUnits="userSpaceOnUse" color-interpolation-filters="sRGB">
    <feFlood flood-opacity="0" result="BackgroundImageFix"/>
    <feBlend mode="normal" in="SourceGraphic" in2="BackgroundImageFix" result="shape"/>
    <feGaussianBlur stdDeviation="8" result="effect1_foregroundBlur_17_474"/>
    </filter>
    <filter id="filter2_i_17_474" x="91.0337" y="75.1785" width="662.626" height="321.845" filterUnits="userSpaceOnUse" color-interpolation-filters="sRGB">
    <feFlood flood-opacity="0" result="BackgroundImageFix"/>
    <feBlend mode="normal" in="SourceGraphic" in2="BackgroundImageFix" result="shape"/>
    <feColorMatrix in="SourceAlpha" type="matrix" values="0 0 0 0 0 0 0 0 0 0 0 0 0 0 0 0 0 0 127 0" result="hardAlpha"/>
    <feOffset dy="4"/>
    <feGaussianBlur stdDeviation="2"/>
    <feComposite in2="hardAlpha" operator="arithmetic" k2="-1" k3="1"/>
    <feColorMatrix type="matrix" values="0 0 0 0 0 0 0 0 0 0 0 0 0 0 0 0 0 0 0.25 0"/>
    <feBlend mode="normal" in2="shape" result="effect1_innerShadow_17_474"/>
    </filter>
    <filter id="filter3_i_17_474" x="157.238" y="136.307" width="193.669" height="202.756" filterUnits="userSpaceOnUse" color-interpolation-filters="sRGB">
    <feFlood flood-opacity="0" result="BackgroundImageFix"/>
    <feBlend mode="normal" in="SourceGraphic" in2="BackgroundImageFix" result="shape"/>
    <feColorMatrix in="SourceAlpha" type="matrix" values="0 0 0 0 0 0 0 0 0 0 0 0 0 0 0 0 0 0 127 0" result="hardAlpha"/>
    <feOffset dy="2"/>
    <feGaussianBlur stdDeviation="4"/>
    <feComposite in2="hardAlpha" operator="arithmetic" k2="-1" k3="1"/>
    <feColorMatrix type="matrix" values="0 0 0 0 0 0 0 0 0 0 0 0 0 0 0 0 0 0 0.25 0"/>
    <feBlend mode="normal" in2="shape" result="effect1_innerShadow_17_474"/>
    </filter>
    <filter id="filter4_i_17_474" x="494.064" y="136.627" width="193.669" height="202.756" filterUnits="userSpaceOnUse" color-interpolation-filters="sRGB">
    <feFlood flood-opacity="0" result="BackgroundImageFix"/>
    <feBlend mode="normal" in="SourceGraphic" in2="BackgroundImageFix" result="shape"/>
    <feColorMatrix in="SourceAlpha" type="matrix" values="0 0 0 0 0 0 0 0 0 0 0 0 0 0 0 0 0 0 127 0" result="hardAlpha"/>
    <feOffset dy="2"/>
    <feGaussianBlur stdDeviation="4"/>
    <feComposite in2="hardAlpha" operator="arithmetic" k2="-1" k3="1"/>
    <feColorMatrix type="matrix" values="0 0 0 0 0 0 0 0 0 0 0 0 0 0 0 0 0 0 0.25 0"/>
    <feBlend mode="normal" in2="shape" result="effect1_innerShadow_17_474"/>
    </filter>
    <linearGradient id="paint0_linear_17_474" x1="96.0523" y1="56.3232" x2="732.622" y2="441.076" gradientUnits="userSpaceOnUse">
    <stop stop-color="#E9E2A6"/>
    <stop offset="0.25" stop-color="#726D44"/>
    <stop offset="0.59" stop-color="#6AD581"/>
    <stop offset="1" stop-color="#44A8D3"/>
    </linearGradient>
    <linearGradient id="paint1_linear_17_474" x1="59.4516" y1="27" x2="783.198" y2="443.896" gradientUnits="userSpaceOnUse">
    <stop stop-color="#E9E2A6"/>
    <stop offset="0.25" stop-color="#726D44"/>
    <stop offset="0.59" stop-color="#6AD581"/>
    <stop offset="1" stop-color="#44A8D3"/>
    </linearGradient>
    <linearGradient id="paint2_linear_17_474" x1="140.547" y1="99.4209" x2="647.031" y2="451.05" gradientUnits="userSpaceOnUse">
    <stop stop-color="#E9E2A6"/>
    <stop offset="0.25" stop-color="#726D44"/>
    <stop offset="0.59" stop-color="#6AD581"/>
    <stop offset="1" stop-color="#44A8D3"/>
    </linearGradient>
    <linearGradient id="paint3_linear_17_474" x1="327.234" y1="124.552" x2="126.019" y2="206.386" gradientUnits="userSpaceOnUse">
    <stop stop-color="#E9E2A6"/>
    <stop offset="0.25" stop-color="#726D44"/>
    <stop offset="0.59" stop-color="#6AD581"/>
    <stop offset="1" stop-color="#44A8D3"/>
    </linearGradient>
    <linearGradient id="paint4_linear_17_474" x1="327.234" y1="124.552" x2="126.019" y2="206.386" gradientUnits="userSpaceOnUse">
    <stop stop-color="#E9E2A6"/>
    <stop offset="0.25" stop-color="#726D44"/>
    <stop offset="0.59" stop-color="#6AD581"/>
    <stop offset="1" stop-color="#44A8D3"/>
    </linearGradient>
    <linearGradient id="paint5_linear_17_474" x1="327.234" y1="124.552" x2="126.019" y2="206.386" gradientUnits="userSpaceOnUse">
    <stop stop-color="#E9E2A6"/>
    <stop offset="0.25" stop-color="#726D44"/>
    <stop offset="0.59" stop-color="#6AD581"/>
    <stop offset="1" stop-color="#44A8D3"/>
    </linearGradient>
    <linearGradient id="paint6_linear_17_474" x1="327.234" y1="124.552" x2="126.019" y2="206.386" gradientUnits="userSpaceOnUse">
    <stop stop-color="#E9E2A6"/>
    <stop offset="0.25" stop-color="#726D44"/>
    <stop offset="0.59" stop-color="#6AD581"/>
    <stop offset="1" stop-color="#44A8D3"/>
    </linearGradient>
    <linearGradient id="paint7_linear_17_474" x1="327.234" y1="124.552" x2="126.019" y2="206.386" gradientUnits="userSpaceOnUse">
    <stop stop-color="#E9E2A6"/>
    <stop offset="0.25" stop-color="#726D44"/>
    <stop offset="0.59" stop-color="#6AD581"/>
    <stop offset="1" stop-color="#44A8D3"/>
    </linearGradient>
    <linearGradient id="paint8_linear_17_474" x1="327.234" y1="124.552" x2="126.019" y2="206.386" gradientUnits="userSpaceOnUse">
    <stop stop-color="#E9E2A6"/>
    <stop offset="0.25" stop-color="#726D44"/>
    <stop offset="0.59" stop-color="#6AD581"/>
    <stop offset="1" stop-color="#44A8D3"/>
    </linearGradient>
    <linearGradient id="paint9_linear_17_474" x1="327.234" y1="124.552" x2="126.019" y2="206.386" gradientUnits="userSpaceOnUse">
    <stop stop-color="#E9E2A6"/>
    <stop offset="0.25" stop-color="#726D44"/>
    <stop offset="0.59" stop-color="#6AD581"/>
    <stop offset="1" stop-color="#44A8D3"/>
    </linearGradient>
    <linearGradient id="paint10_linear_17_474" x1="517.736" y1="124.872" x2="718.951" y2="206.706" gradientUnits="userSpaceOnUse">
    <stop stop-color="#E9E2A6"/>
    <stop offset="0.25" stop-color="#726D44"/>
    <stop offset="0.59" stop-color="#6AD581"/>
    <stop offset="1" stop-color="#44A8D3"/>
    </linearGradient>
    <linearGradient id="paint11_linear_17_474" x1="517.736" y1="124.872" x2="718.951" y2="206.706" gradientUnits="userSpaceOnUse">
    <stop stop-color="#E9E2A6"/>
    <stop offset="0.25" stop-color="#726D44"/>
    <stop offset="0.59" stop-color="#6AD581"/>
    <stop offset="1" stop-color="#44A8D3"/>
    </linearGradient>
    <linearGradient id="paint12_linear_17_474" x1="517.736" y1="124.872" x2="718.951" y2="206.706" gradientUnits="userSpaceOnUse">
    <stop stop-color="#E9E2A6"/>
    <stop offset="0.25" stop-color="#726D44"/>
    <stop offset="0.59" stop-color="#6AD581"/>
    <stop offset="1" stop-color="#44A8D3"/>
    </linearGradient>
    <linearGradient id="paint13_linear_17_474" x1="517.736" y1="124.872" x2="718.951" y2="206.706" gradientUnits="userSpaceOnUse">
    <stop stop-color="#E9E2A6"/>
    <stop offset="0.25" stop-color="#726D44"/>
    <stop offset="0.59" stop-color="#6AD581"/>
    <stop offset="1" stop-color="#44A8D3"/>
    </linearGradient>
    <linearGradient id="paint14_linear_17_474" x1="517.736" y1="124.872" x2="718.951" y2="206.706" gradientUnits="userSpaceOnUse">
    <stop stop-color="#E9E2A6"/>
    <stop offset="0.25" stop-color="#726D44"/>
    <stop offset="0.59" stop-color="#6AD581"/>
    <stop offset="1" stop-color="#44A8D3"/>
    </linearGradient>
    <linearGradient id="paint15_linear_17_474" x1="517.736" y1="124.872" x2="718.951" y2="206.706" gradientUnits="userSpaceOnUse">
    <stop stop-color="#E9E2A6"/>
    <stop offset="0.25" stop-color="#726D44"/>
    <stop offset="0.59" stop-color="#6AD581"/>
    <stop offset="1" stop-color="#44A8D3"/>
    </linearGradient>
    <linearGradient id="paint16_linear_17_474" x1="517.736" y1="124.872" x2="718.951" y2="206.706" gradientUnits="userSpaceOnUse">
    <stop stop-color="#E9E2A6"/>
    <stop offset="0.25" stop-color="#726D44"/>
    <stop offset="0.59" stop-color="#6AD581"/>
    <stop offset="1" stop-color="#44A8D3"/>
    </linearGradient>
    </defs>
    </svg>
    