<svg width="843" height="471" viewBox="0 0 843 471" fill="none" xmlns="http://www.w3.org/2000/svg">
<g filter="url(#filter0_f_17_474)">
<path d="M422.347 235.448C422.347 235.448 535.831 414.572 621.957 414.572C708.083 414.572 777.902 334.376 777.902 235.448C777.902 136.52 708.083 56.3232 621.957 56.3232C535.831 56.3232 422.347 235.448 422.347 235.448ZM422.347 235.448C422.347 235.448 308.863 414.572 222.737 414.572C136.61 414.572 66.7912 334.376 66.7912 235.448C66.7912 136.52 136.61 56.3232 222.737 56.3232C308.863 56.3232 422.347 235.448 422.347 235.448Z" stroke="url(#paint0_linear_17_474)" stroke-width="37.7104"/>
</g>
<g filter="url(#filter1_f_17_474)">
<path d="M421.325 235.448C421.325 235.448 547.183 443.896 642.7 443.896C738.217 443.896 815.65 350.57 815.65 235.448C815.65 120.325 738.217 27 642.7 27C547.183 27 421.325 235.448 421.325 235.448ZM421.325 235.448C421.325 235.448 295.467 443.896 199.949 443.896C104.432 443.896 27 350.57 27 235.448C27 120.325 104.432 27 199.949 27C295.467 27 421.325 235.448 421.325 235.448Z" stroke="url(#paint1_linear_17_474)" stroke-width="21.2431"/>
</g>
<g filter="url(#filter2_i_17_474)">
<path d="M422.347 234.101C422.347 234.101 520.356 368.781 594.737 368.781C669.119 368.781 729.417 308.483 729.417 234.101C729.417 159.719 669.119 99.4209 594.737 99.4209C520.356 99.4209 422.347 234.101 422.347 234.101ZM422.347 234.101C422.347 234.101 324.338 368.781 249.956 368.781C175.574 368.781 115.276 308.483 115.276 234.101C115.276 159.719 175.574 99.4209 249.956 99.4209C324.338 99.4209 422.347 234.101 422.347 234.101Z" stroke="url(#paint2_linear_17_474)" stroke-width="48.4848"/>
</g>
<g filter="url(#filter3_i_17_474)">
<path d="M205.8 320.261C206.141 323.216 208.814 325.335 211.77 324.994C214.725 324.652 216.845 321.979 216.503 319.023L198.565 163.828C198.223 160.872 195.55 158.753 192.595 159.095C189.639 159.436 187.52 162.109 187.862 165.065L205.8 320.261Z" fill="url(#paint3_linear_17_474)"/>
<path d="M242.441 332.295C242.782 335.25 245.455 337.369 248.411 337.028C251.366 336.686 253.485 334.013 253.144 331.058L231.185 141.077C230.844 138.121 228.171 136.002 225.215 136.344C222.259 136.685 220.14 139.358 220.482 142.314L242.441 332.295Z" fill="url(#paint4_linear_17_474)"/>
<path d="M276.157 319.023C276.498 321.979 279.171 324.098 282.127 323.756C285.082 323.415 287.201 320.742 286.86 317.786L266.448 141.184C266.106 138.229 263.433 136.11 260.477 136.451C257.522 136.793 255.403 139.466 255.744 142.421L276.157 319.023Z" fill="url(#paint5_linear_17_474)"/>
<path d="M310.653 294.132C310.995 297.087 313.667 299.206 316.623 298.865C319.579 298.523 321.698 295.85 321.356 292.895L305.892 159.105C305.551 156.15 302.878 154.031 299.922 154.372C296.966 154.714 294.847 157.387 295.189 160.342L310.653 294.132Z" fill="url(#paint6_linear_17_474)"/>
<path d="M340.167 264.177C340.509 267.132 343.182 269.251 346.138 268.91C349.093 268.568 351.212 265.895 350.871 262.94L342.829 193.369C342.488 190.414 339.815 188.294 336.859 188.636C333.904 188.978 331.785 191.651 332.126 194.606L340.167 264.177Z" fill="url(#paint7_linear_17_474)"/>
<path d="M169.026 296.286C169.368 299.242 172.041 301.361 174.996 301.019C177.952 300.678 180.071 298.005 179.73 295.049L167.977 193.369C167.635 190.414 164.962 188.294 162.007 188.636C159.051 188.978 156.932 191.651 157.274 194.606L169.026 296.286Z" fill="url(#paint8_linear_17_474)"/>
</g>
<g filter="url(#filter4_i_17_474)">
<path d="M639.171 320.58C638.829 323.536 636.156 325.655 633.2 325.313C630.245 324.972 628.126 322.299 628.467 319.343L646.406 164.147C646.747 161.192 649.42 159.073 652.376 159.414C655.331 159.756 657.45 162.429 657.109 165.385L639.171 320.58Z" fill="url(#paint9_linear_17_474)"/>
<path d="M602.53 332.614C602.188 335.57 599.515 337.689 596.56 337.347C593.604 337.006 591.485 334.333 591.826 331.377L613.785 141.396C614.127 138.441 616.8 136.322 619.755 136.663C622.711 137.005 624.83 139.678 624.488 142.633L602.53 332.614Z" fill="url(#paint10_linear_17_474)"/>
<path d="M568.814 319.343C568.472 322.299 565.799 324.418 562.843 324.076C559.888 323.735 557.769 321.062 558.11 318.106L578.523 141.504C578.864 138.548 581.537 136.429 584.493 136.771C587.449 137.113 589.568 139.786 589.226 142.741L568.814 319.343Z" fill="url(#paint11_linear_17_474)"/>
<path d="M534.317 294.451C533.976 297.407 531.303 299.526 528.347 299.184C525.392 298.843 523.273 296.17 523.614 293.214L539.078 159.425C539.42 156.469 542.093 154.35 545.048 154.692C548.004 155.033 550.123 157.706 549.781 160.662L534.317 294.451Z" fill="url(#paint12_linear_17_474)"/>
<path d="M504.803 264.496C504.461 267.452 501.788 269.571 498.833 269.229C495.877 268.888 493.758 266.215 494.1 263.259L502.141 193.689C502.483 190.733 505.155 188.614 508.111 188.956C511.067 189.297 513.186 191.97 512.844 194.926L504.803 264.496Z" fill="url(#paint13_linear_17_474)"/>
<path d="M675.944 296.606C675.602 299.561 672.929 301.681 669.974 301.339C667.018 300.997 664.899 298.324 665.241 295.369L676.993 193.689C677.335 190.733 680.008 188.614 682.963 188.956C685.919 189.297 688.038 191.97 687.697 194.926L675.944 296.606Z" fill="url(#paint14_linear_17_474)"/>
</g>
<defs>
<filter id="filter0_f_17_474" x="43.936" y="33.468" width="756.822" height="403.96" filterUnits="userSpaceOnUse" color-interpolation-filters="sRGB">
<feFlood flood-opacity="0" result="BackgroundImageFix"/>
<feBlend mode="normal" in="SourceGraphic" in2="BackgroundImageFix" result="shape"/>
<feGaussianBlur stdDeviation="2" result="effect1_foregroundBlur_17_474"/>
</filter>
<filter id="filter1_f_17_474" x="0.378433" y="0.378479" width="841.893" height="470.139" filterUnits="userSpaceOnUse" color-interpolation-filters="sRGB">
<feFlood flood-opacity="0" result="BackgroundImageFix"/>
<feBlend mode="normal" in="SourceGraphic" in2="BackgroundImageFix" result="shape"/>
<feGaussianBlur stdDeviation="8" result="effect1_foregroundBlur_17_474"/>
</filter>
<filter id="filter2_i_17_474" x="91.0337" y="75.1785" width="662.626" height="321.845" filterUnits="userSpaceOnUse" color-interpolation-filters="sRGB">
<feFlood flood-opacity="0" result="BackgroundImageFix"/>
<feBlend mode="normal" in="SourceGraphic" in2="BackgroundImageFix" result="shape"/>
<feColorMatrix in="SourceAlpha" type="matrix" values="0 0 0 0 0 0 0 0 0 0 0 0 0 0 0 0 0 0 127 0" result="hardAlpha"/>
<feOffset dy="4"/>
<feGaussianBlur stdDeviation="2"/>
<feComposite in2="hardAlpha" operator="arithmetic" k2="-1" k3="1"/>
<feColorMatrix type="matrix" values="0 0 0 0 0 0 0 0 0 0 0 0 0 0 0 0 0 0 0.25 0"/>
<feBlend mode="normal" in2="shape" result="effect1_innerShadow_17_474"/>
</filter>
<filter id="filter3_i_17_474" x="157.238" y="136.307" width="193.669" height="202.756" filterUnits="userSpaceOnUse" color-interpolation-filters="sRGB">
<feFlood flood-opacity="0" result="BackgroundImageFix"/>
<feBlend mode="normal" in="SourceGraphic" in2="BackgroundImageFix" result="shape"/>
<feColorMatrix in="SourceAlpha" type="matrix" values="0 0 0 0 0 0 0 0 0 0 0 0 0 0 0 0 0 0 127 0" result="hardAlpha"/>
<feOffset dy="2"/>
<feGaussianBlur stdDeviation="4"/>
<feComposite in2="hardAlpha" operator="arithmetic" k2="-1" k3="1"/>
<feColorMatrix type="matrix" values="0 0 0 0 0 0 0 0 0 0 0 0 0 0 0 0 0 0 0.25 0"/>
<feBlend mode="normal" in2="shape" result="effect1_innerShadow_17_474"/>
</filter>
<filter id="filter4_i_17_474" x="494.064" y="136.627" width="193.669" height="202.756" filterUnits="userSpaceOnUse" color-interpolation-filters="sRGB">
<feFlood flood-opacity="0" result="BackgroundImageFix"/>
<feBlend mode="normal" in="SourceGraphic" in2="BackgroundImageFix" result="shape"/>
<feColorMatrix in="SourceAlpha" type="matrix" values="0 0 0 0 0 0 0 0 0 0 0 0 0 0 0 0 0 0 127 0" result="hardAlpha"/>
<feOffset dy="2"/>
<feGaussianBlur stdDeviation="4"/>
<feComposite in2="hardAlpha" operator="arithmetic" k2="-1" k3="1"/>
<feColorMatrix type="matrix" values="0 0 0 0 0 0 0 0 0 0 0 0 0 0 0 0 0 0 0.25 0"/>
<feBlend mode="normal" in2="shape" result="effect1_innerShadow_17_474"/>
</filter>
<linearGradient id="paint0_linear_17_474" x1="66.7912" y1="282.185" x2="780.557" y2="218.428" gradientUnits="userSpaceOnUse">
<stop offset="0.0820949" stop-color="#C4D462"/>
<stop offset="0.373445" stop-color="#96A250"/>
<stop offset="0.632841" stop-color="#0DA939"/>
<stop offset="0.907274" stop-color="#48DEB1"/>
</linearGradient>
<linearGradient id="paint1_linear_17_474" x1="27" y1="340.744" x2="815.65" y2="130.152" gradientUnits="userSpaceOnUse">
<stop offset="0.0820949" stop-color="#C4D462"/>
<stop offset="0.373445" stop-color="#96A250"/>
<stop offset="0.632841" stop-color="#0DA939"/>
<stop offset="0.907274" stop-color="#48DEB1"/>
</linearGradient>
<linearGradient id="paint2_linear_17_474" x1="115.276" y1="282.67" x2="729.003" y2="285.22" gradientUnits="userSpaceOnUse">
<stop offset="0.0820949" stop-color="#BBC86F"/>
<stop offset="0.15" stop-color="#B2BC77"/>
<stop offset="0.35" stop-color="#2AA41F"/>
<stop offset="0.907274" stop-color="#48DEB1"/>
</linearGradient>
<linearGradient id="paint3_linear_17_474" x1="327.234" y1="124.552" x2="126.019" y2="206.386" gradientUnits="userSpaceOnUse">
<stop offset="0.0820949" stop-color="#BBC86F"/>
<stop offset="0.15" stop-color="#B2BC77"/>
<stop offset="0.35" stop-color="#2AA41F"/>
<stop offset="0.907274" stop-color="#48DEB1"/>
</linearGradient>
<linearGradient id="paint4_linear_17_474" x1="327.234" y1="124.552" x2="126.019" y2="206.386" gradientUnits="userSpaceOnUse">
<stop offset="0.0820949" stop-color="#BBC86F"/>
<stop offset="0.15" stop-color="#B2BC77"/>
<stop offset="0.35" stop-color="#2AA41F"/>
<stop offset="0.907274" stop-color="#48DEB1"/>
</linearGradient>
<linearGradient id="paint5_linear_17_474" x1="327.234" y1="124.552" x2="126.019" y2="206.386" gradientUnits="userSpaceOnUse">
<stop offset="0.0820949" stop-color="#BBC86F"/>
<stop offset="0.15" stop-color="#B2BC77"/>
<stop offset="0.35" stop-color="#2AA41F"/>
<stop offset="0.907274" stop-color="#48DEB1"/>
</linearGradient>
<linearGradient id="paint6_linear_17_474" x1="327.234" y1="124.552" x2="126.019" y2="206.386" gradientUnits="userSpaceOnUse">
<stop offset="0.0820949" stop-color="#BBC86F"/>
<stop offset="0.15" stop-color="#B2BC77"/>
<stop offset="0.35" stop-color="#2AA41F"/>
<stop offset="0.907274" stop-color="#48DEB1"/>
</linearGradient>
<linearGradient id="paint7_linear_17_474" x1="327.234" y1="124.552" x2="126.019" y2="206.386" gradientUnits="userSpaceOnUse">
<stop offset="0.0820949" stop-color="#BBC86F"/>
<stop offset="0.15" stop-color="#B2BC77"/>
<stop offset="0.35" stop-color="#2AA41F"/>
<stop offset="0.907274" stop-color="#48DEB1"/>
</linearGradient>
<linearGradient id="paint8_linear_17_474" x1="327.234" y1="124.552" x2="126.019" y2="206.386" gradientUnits="userSpaceOnUse">
<stop offset="0.0820949" stop-color="#BBC86F"/>
<stop offset="0.15" stop-color="#B2BC77"/>
<stop offset="0.35" stop-color="#2AA41F"/>
<stop offset="0.907274" stop-color="#48DEB1"/>
</linearGradient>
<linearGradient id="paint9_linear_17_474" x1="517.736" y1="124.872" x2="718.951" y2="206.706" gradientUnits="userSpaceOnUse">
<stop offset="0.0820949" stop-color="#BBC86F"/>
<stop offset="0.15" stop-color="#B2BC77"/>
<stop offset="0.35" stop-color="#2AA41F"/>
<stop offset="0.907274" stop-color="#48DEB1"/>
</linearGradient>
<linearGradient id="paint10_linear_17_474" x1="517.736" y1="124.872" x2="718.951" y2="206.706" gradientUnits="userSpaceOnUse">
<stop offset="0.0820949" stop-color="#BBC86F"/>
<stop offset="0.15" stop-color="#B2BC77"/>
<stop offset="0.35" stop-color="#2AA41F"/>
<stop offset="0.907274" stop-color="#48DEB1"/>
</linearGradient>
<linearGradient id="paint11_linear_17_474" x1="517.736" y1="124.872" x2="718.951" y2="206.706" gradientUnits="userSpaceOnUse">
<stop offset="0.0820949" stop-color="#BBC86F"/>
<stop offset="0.15" stop-color="#B2BC77"/>
<stop offset="0.35" stop-color="#2AA41F"/>
<stop offset="0.907274" stop-color="#48DEB1"/>
</linearGradient>
<linearGradient id="paint12_linear_17_474" x1="517.736" y1="124.872" x2="718.951" y2="206.706" gradientUnits="userSpaceOnUse">
<stop offset="0.0820949" stop-color="#BBC86F"/>
<stop offset="0.15" stop-color="#B2BC77"/>
<stop offset="0.35" stop-color="#2AA41F"/>
<stop offset="0.907274" stop-color="#48DEB1"/>
</linearGradient>
<linearGradient id="paint13_linear_17_474" x1="517.736" y1="124.872" x2="718.951" y2="206.706" gradientUnits="userSpaceOnUse">
<stop offset="0.0820949" stop-color="#BBC86F"/>
<stop offset="0.15" stop-color="#B2BC77"/>
<stop offset="0.35" stop-color="#2AA41F"/>
<stop offset="0.907274" stop-color="#48DEB1"/>
</linearGradient>
<linearGradient id="paint14_linear_17_474" x1="517.736" y1="124.872" x2="718.951" y2="206.706" gradientUnits="userSpaceOnUse">
<stop offset="0.0820949" stop-color="#BBC86F"/>
<stop offset="0.15" stop-color="#B2BC77"/>
<stop offset="0.35" stop-color="#2AA41F"/>
<stop offset="0.907274" stop-color="#48DEB1"/>
</linearGradient>
</defs>
</svg>
